<mxfile host="Electron" agent="Mozilla/5.0 (Windows NT 10.0; Win64; x64) AppleWebKit/537.36 (KHTML, like Gecko) draw.io/24.7.17 Chrome/128.0.6613.36 Electron/32.0.1 Safari/537.36" version="24.7.17">
  <diagram name="Page-1" id="JeUU8hANdzKr1guajfXe">
    <mxGraphModel dx="3774" dy="2297" grid="1" gridSize="10" guides="1" tooltips="1" connect="1" arrows="1" fold="1" page="1" pageScale="1" pageWidth="850" pageHeight="1100" math="0" shadow="0">
      <root>
        <mxCell id="0" />
        <mxCell id="1" parent="0" />
        <mxCell id="bIvPt7_trqVbtjqCLcQp-1" value="Score" style="rounded=1;arcSize=10;whiteSpace=wrap;html=1;align=center;container=1;" vertex="1" collapsed="1" parent="1">
          <mxGeometry x="-1630" y="-640" width="100" height="50" as="geometry">
            <mxRectangle x="-1670" y="-580" width="300" height="130" as="alternateBounds" />
          </mxGeometry>
        </mxCell>
        <mxCell id="bIvPt7_trqVbtjqCLcQp-2" value="CourseId&lt;div&gt;UserId&lt;/div&gt;" style="shape=note;size=20;whiteSpace=wrap;html=1;" vertex="1" parent="bIvPt7_trqVbtjqCLcQp-1">
          <mxGeometry x="180" y="50" width="100" height="60" as="geometry" />
        </mxCell>
      </root>
    </mxGraphModel>
  </diagram>
</mxfile>
